<svg width="35" height="35" viewBox="0 0 35 35" fill="none" xmlns="http://www.w3.org/2000/svg">
<path d="M34.1421 29.1422C32.285 30.9994 30.0802 32.4726 27.6537 33.4777C25.2272 34.4828 22.6264 35.0001 20 35.0001C17.3736 35.0001 14.7728 34.4828 12.3463 33.4777C9.91982 32.4726 7.71504 30.9994 5.85786 29.1422C4.00069 27.2851 2.5275 25.0803 1.52241 22.6538C0.517315 20.2272 1.70078e-07 17.6265 3.42285e-07 15.0001C5.14493e-07 12.3737 0.517316 9.77293 1.52241 7.34642C2.5275 4.91991 4.00069 2.71513 5.85787 0.857954L12.9289 7.92902C12.0003 8.85761 11.2638 9.96 10.7612 11.1733C10.2587 12.3865 10 13.6869 10 15.0001C10 16.3133 10.2587 17.6137 10.7612 18.8269C11.2638 20.0402 12.0003 21.1426 12.9289 22.0712C13.8575 22.9997 14.9599 23.7363 16.1732 24.2389C17.3864 24.7414 18.6868 25.0001 20 25.0001C21.3132 25.0001 22.6136 24.7414 23.8268 24.2389C25.0401 23.7363 26.1425 22.9997 27.0711 22.0712L34.1421 29.1422Z" fill="#C282D1"/>
</svg>
