<svg width="32" height="32" viewBox="0 0 32 32" fill="none" xmlns="http://www.w3.org/2000/svg">
<path d="M32 16C32 19.1645 31.0616 22.2579 29.3035 24.8891C27.5454 27.5203 25.0466 29.5711 22.1229 30.7821C19.1993 31.9931 15.9823 32.3099 12.8786 31.6926C9.77486 31.0752 6.92393 29.5513 4.68629 27.3137C2.44865 25.0761 0.924799 22.2251 0.307435 19.1214C-0.309928 16.0177 0.00692538 12.8007 1.21793 9.87706C2.42893 6.95345 4.47969 4.45459 7.11088 2.69649C9.74206 0.938384 12.8355 -3.77363e-08 16 0V8C14.4177 8 12.871 8.46919 11.5554 9.34824C10.2398 10.2273 9.21447 11.4767 8.60896 12.9385C8.00346 14.4003 7.84504 16.0089 8.15372 17.5607C8.4624 19.1126 9.22433 20.538 10.3431 21.6569C11.462 22.7757 12.8874 23.5376 14.4393 23.8463C15.9911 24.155 17.5997 23.9965 19.0615 23.391C20.5233 22.7855 21.7727 21.7602 22.6518 20.4446C23.5308 19.129 24 17.5823 24 16H32Z" fill="#3878F2"/>
</svg>
