<svg width="39" height="39" viewBox="0 0 39 39" fill="none" xmlns="http://www.w3.org/2000/svg">
<g filter="url(#filter0_dd_2_478)">
<path d="M21.5858 3.0748e-06L5 1.74846e-07C4.44772 7.8281e-08 4 0.447716 4 1L4 17.5858C4 18.4767 5.07714 18.9229 5.7071 18.2929L22.2929 1.70711C22.9229 1.07715 22.4767 3.23057e-06 21.5858 3.0748e-06Z" fill="#C282D1"/>
<path d="M33.5858 12L17 12C16.4477 12 16 12.4477 16 13L16 29.5858C16 30.4767 17.0771 30.9229 17.7071 30.2929L34.2929 13.7071C34.9229 13.0771 34.4767 12 33.5858 12Z" fill="#C282D1"/>
</g>
<defs>
<filter id="filter0_dd_2_478" x="0" y="0" width="38.5879" height="38.5878" filterUnits="userSpaceOnUse" color-interpolation-filters="sRGB">
<feFlood flood-opacity="0" result="BackgroundImageFix"/>
<feColorMatrix in="SourceAlpha" type="matrix" values="0 0 0 0 0 0 0 0 0 0 0 0 0 0 0 0 0 0 127 0" result="hardAlpha"/>
<feOffset dy="4"/>
<feGaussianBlur stdDeviation="2"/>
<feColorMatrix type="matrix" values="0 0 0 0 0 0 0 0 0 0 0 0 0 0 0 0 0 0 0.25 0"/>
<feBlend mode="normal" in2="BackgroundImageFix" result="effect1_dropShadow_2_478"/>
<feColorMatrix in="SourceAlpha" type="matrix" values="0 0 0 0 0 0 0 0 0 0 0 0 0 0 0 0 0 0 127 0" result="hardAlpha"/>
<feOffset dy="4"/>
<feGaussianBlur stdDeviation="2"/>
<feColorMatrix type="matrix" values="0 0 0 0 0 0 0 0 0 0 0 0 0 0 0 0 0 0 0.25 0"/>
<feBlend mode="normal" in2="effect1_dropShadow_2_478" result="effect2_dropShadow_2_478"/>
<feBlend mode="normal" in="SourceGraphic" in2="effect2_dropShadow_2_478" result="shape"/>
</filter>
</defs>
</svg>
