<svg width="156" height="48" viewBox="0 0 156 48" fill="none" xmlns="http://www.w3.org/2000/svg">
<path d="M61.388 36V24.744H58.476V22H61.388V19.648C61.388 18.136 61.836 16.96 62.732 16.12C63.628 15.2613 64.776 14.832 66.176 14.832C67.0347 14.832 67.8 14.944 68.472 15.168V17.912C68.0427 17.7253 67.492 17.632 66.82 17.632C65.9987 17.632 65.4013 17.8187 65.028 18.192C64.6547 18.5467 64.468 19.1533 64.468 20.012V22H68.472V24.744H64.468V36H61.388ZM75.6914 36.28C74.0301 36.28 72.6301 35.8693 71.4914 35.048C70.3714 34.2267 69.7741 33.1253 69.6994 31.744H72.8914C73.1154 33.1253 74.0767 33.816 75.7754 33.816C76.4661 33.816 77.0167 33.6947 77.4274 33.452C77.8381 33.1907 78.0434 32.8173 78.0434 32.332C78.0434 31.8467 77.8847 31.464 77.5674 31.184C77.2501 30.904 76.7181 30.6707 75.9714 30.484L73.6754 29.868C71.2861 29.2333 70.0914 27.824 70.0914 25.64C70.0914 24.464 70.5674 23.5213 71.5194 22.812C72.4714 22.084 73.7314 21.72 75.2994 21.72C76.8114 21.72 78.0527 22.1027 79.0234 22.868C79.9941 23.6333 80.5354 24.6507 80.6474 25.92H77.5674C77.2687 24.7627 76.5034 24.184 75.2714 24.184C74.6554 24.184 74.1607 24.3147 73.7874 24.576C73.4141 24.8187 73.2274 25.164 73.2274 25.612C73.2274 26.4147 73.8527 26.9747 75.1034 27.292L77.4554 27.908C79.9381 28.5427 81.1794 29.952 81.1794 32.136C81.1794 33.4613 80.6661 34.488 79.6394 35.216C78.6314 35.9253 77.3154 36.28 75.6914 36.28ZM97.2164 36.28C95.1071 36.28 93.3524 35.58 91.9524 34.18C90.5711 32.7613 89.8804 31.0347 89.8804 29C89.8804 26.9653 90.5711 25.248 91.9524 23.848C93.3524 22.4293 95.1071 21.72 97.2164 21.72C99.0271 21.72 100.567 22.224 101.836 23.232C103.124 24.24 103.955 25.5373 104.328 27.124H101.08C100.8 26.34 100.315 25.7147 99.6244 25.248C98.9524 24.7627 98.1497 24.52 97.2164 24.52C95.9844 24.52 94.9764 24.94 94.1924 25.78C93.4084 26.62 93.0164 27.6933 93.0164 29C93.0164 30.3067 93.4084 31.38 94.1924 32.22C94.9764 33.06 95.9844 33.48 97.2164 33.48C98.1497 33.48 98.9524 33.2467 99.6244 32.78C100.315 32.2947 100.8 31.66 101.08 30.876H104.328C103.955 32.4627 103.124 33.76 101.836 34.768C100.567 35.776 99.0271 36.28 97.2164 36.28ZM118.776 34.18C117.376 35.58 115.64 36.28 113.568 36.28C111.496 36.28 109.751 35.58 108.332 34.18C106.932 32.7613 106.232 31.0347 106.232 29C106.232 26.9653 106.932 25.248 108.332 23.848C109.751 22.4293 111.496 21.72 113.568 21.72C115.64 21.72 117.376 22.4293 118.776 23.848C120.195 25.248 120.904 26.9653 120.904 29C120.904 31.0347 120.195 32.7613 118.776 34.18ZM113.568 33.424C114.781 33.424 115.78 33.004 116.564 32.164C117.367 31.3053 117.768 30.2507 117.768 29C117.768 27.7493 117.367 26.704 116.564 25.864C115.78 25.0053 114.781 24.576 113.568 24.576C112.336 24.576 111.319 25.0053 110.516 25.864C109.732 26.704 109.34 27.7493 109.34 29C109.34 30.2507 109.732 31.3053 110.516 32.164C111.319 33.004 112.336 33.424 113.568 33.424ZM129.742 36.28C127.838 36.28 126.232 35.5707 124.926 34.152C123.638 32.7333 122.994 31.016 122.994 29C122.994 26.984 123.638 25.2667 124.926 23.848C126.232 22.4293 127.838 21.72 129.742 21.72C130.694 21.72 131.571 21.9347 132.374 22.364C133.176 22.7747 133.792 23.2787 134.222 23.876V15H137.302V36H134.222V34.124C133.792 34.7213 133.176 35.2347 132.374 35.664C131.571 36.0747 130.694 36.28 129.742 36.28ZM127.306 32.192C128.09 33.0507 129.088 33.48 130.302 33.48C131.515 33.48 132.514 33.0507 133.298 32.192C134.082 31.3333 134.474 30.2693 134.474 29C134.474 27.7307 134.082 26.6667 133.298 25.808C132.514 24.9493 131.515 24.52 130.302 24.52C129.088 24.52 128.09 24.9493 127.306 25.808C126.522 26.6667 126.13 27.7307 126.13 29C126.13 30.2693 126.522 31.3333 127.306 32.192ZM147.662 36.28C145.572 36.28 143.854 35.5987 142.51 34.236C141.166 32.8547 140.494 31.1093 140.494 29C140.494 26.8907 141.157 25.1547 142.482 23.792C143.808 22.4107 145.544 21.72 147.69 21.72C149.856 21.72 151.601 22.476 152.926 23.988C154.252 25.4813 154.84 27.404 154.69 29.756H143.546C143.584 30.8387 143.994 31.744 144.778 32.472C145.562 33.2 146.561 33.564 147.774 33.564C149.492 33.564 150.668 32.9107 151.302 31.604H154.522C154.093 32.9667 153.272 34.0867 152.058 34.964C150.845 35.8413 149.38 36.28 147.662 36.28ZM147.606 24.296C146.598 24.296 145.73 24.5853 145.002 25.164C144.293 25.724 143.836 26.5267 143.63 27.572H151.386C151.162 26.4893 150.705 25.6773 150.014 25.136C149.324 24.576 148.521 24.296 147.606 24.296Z" fill="white"/>
<rect width="22.5882" height="22.5882" rx="11.2941" fill="#FF8145"/>
<path d="M17.7598 25.4116H2C0.895431 25.4116 0 26.307 0 27.4116V43.1714C0 44.9532 2.15428 45.8456 3.41421 44.5856L19.174 28.8258C20.434 27.5659 19.5416 25.4116 17.7598 25.4116Z" fill="#43BA7F"/>
<path d="M43.1716 0H27.4117C26.3072 0 25.4117 0.895428 25.4117 2V17.7598C25.4117 19.5416 27.566 20.434 28.826 19.174L44.5858 3.41421C45.8457 2.15428 44.9534 0 43.1716 0Z" fill="#C282D1"/>
</svg>
