<svg width="156" height="48" viewBox="0 0 156 48" fill="none" xmlns="http://www.w3.org/2000/svg">
<path d="M61.388 34V22.744H58.476V20H61.388V17.648C61.388 16.136 61.836 14.96 62.732 14.12C63.628 13.2613 64.776 12.832 66.176 12.832C67.0347 12.832 67.8 12.944 68.472 13.168V15.912C68.0427 15.7253 67.492 15.632 66.82 15.632C65.9987 15.632 65.4013 15.8187 65.028 16.192C64.6547 16.5467 64.468 17.1533 64.468 18.012V20H68.472V22.744H64.468V34H61.388ZM75.6914 34.28C74.0301 34.28 72.6301 33.8693 71.4914 33.048C70.3714 32.2267 69.7741 31.1253 69.6994 29.744H72.8914C73.1154 31.1253 74.0767 31.816 75.7754 31.816C76.4661 31.816 77.0167 31.6947 77.4274 31.452C77.8381 31.1907 78.0434 30.8173 78.0434 30.332C78.0434 29.8467 77.8847 29.464 77.5674 29.184C77.2501 28.904 76.7181 28.6707 75.9714 28.484L73.6754 27.868C71.2861 27.2333 70.0914 25.824 70.0914 23.64C70.0914 22.464 70.5674 21.5213 71.5194 20.812C72.4714 20.084 73.7314 19.72 75.2994 19.72C76.8114 19.72 78.0527 20.1027 79.0234 20.868C79.9941 21.6333 80.5354 22.6507 80.6474 23.92H77.5674C77.2687 22.7627 76.5034 22.184 75.2714 22.184C74.6554 22.184 74.1607 22.3147 73.7874 22.576C73.4141 22.8187 73.2274 23.164 73.2274 23.612C73.2274 24.4147 73.8527 24.9747 75.1034 25.292L77.4554 25.908C79.9381 26.5427 81.1794 27.952 81.1794 30.136C81.1794 31.4613 80.6661 32.488 79.6394 33.216C78.6314 33.9253 77.3154 34.28 75.6914 34.28ZM97.2164 34.28C95.1071 34.28 93.3524 33.58 91.9524 32.18C90.5711 30.7613 89.8804 29.0347 89.8804 27C89.8804 24.9653 90.5711 23.248 91.9524 21.848C93.3524 20.4293 95.1071 19.72 97.2164 19.72C99.0271 19.72 100.567 20.224 101.836 21.232C103.124 22.24 103.955 23.5373 104.328 25.124H101.08C100.8 24.34 100.315 23.7147 99.6244 23.248C98.9524 22.7627 98.1497 22.52 97.2164 22.52C95.9844 22.52 94.9764 22.94 94.1924 23.78C93.4084 24.62 93.0164 25.6933 93.0164 27C93.0164 28.3067 93.4084 29.38 94.1924 30.22C94.9764 31.06 95.9844 31.48 97.2164 31.48C98.1497 31.48 98.9524 31.2467 99.6244 30.78C100.315 30.2947 100.8 29.66 101.08 28.876H104.328C103.955 30.4627 103.124 31.76 101.836 32.768C100.567 33.776 99.0271 34.28 97.2164 34.28ZM118.776 32.18C117.376 33.58 115.64 34.28 113.568 34.28C111.496 34.28 109.751 33.58 108.332 32.18C106.932 30.7613 106.232 29.0347 106.232 27C106.232 24.9653 106.932 23.248 108.332 21.848C109.751 20.4293 111.496 19.72 113.568 19.72C115.64 19.72 117.376 20.4293 118.776 21.848C120.195 23.248 120.904 24.9653 120.904 27C120.904 29.0347 120.195 30.7613 118.776 32.18ZM113.568 31.424C114.781 31.424 115.78 31.004 116.564 30.164C117.367 29.3053 117.768 28.2507 117.768 27C117.768 25.7493 117.367 24.704 116.564 23.864C115.78 23.0053 114.781 22.576 113.568 22.576C112.336 22.576 111.319 23.0053 110.516 23.864C109.732 24.704 109.34 25.7493 109.34 27C109.34 28.2507 109.732 29.3053 110.516 30.164C111.319 31.004 112.336 31.424 113.568 31.424ZM129.742 34.28C127.838 34.28 126.232 33.5707 124.926 32.152C123.638 30.7333 122.994 29.016 122.994 27C122.994 24.984 123.638 23.2667 124.926 21.848C126.232 20.4293 127.838 19.72 129.742 19.72C130.694 19.72 131.571 19.9347 132.374 20.364C133.176 20.7747 133.792 21.2787 134.222 21.876V13H137.302V34H134.222V32.124C133.792 32.7213 133.176 33.2347 132.374 33.664C131.571 34.0747 130.694 34.28 129.742 34.28ZM127.306 30.192C128.09 31.0507 129.088 31.48 130.302 31.48C131.515 31.48 132.514 31.0507 133.298 30.192C134.082 29.3333 134.474 28.2693 134.474 27C134.474 25.7307 134.082 24.6667 133.298 23.808C132.514 22.9493 131.515 22.52 130.302 22.52C129.088 22.52 128.09 22.9493 127.306 23.808C126.522 24.6667 126.13 25.7307 126.13 27C126.13 28.2693 126.522 29.3333 127.306 30.192ZM147.662 34.28C145.572 34.28 143.854 33.5987 142.51 32.236C141.166 30.8547 140.494 29.1093 140.494 27C140.494 24.8907 141.157 23.1547 142.482 21.792C143.808 20.4107 145.544 19.72 147.69 19.72C149.856 19.72 151.601 20.476 152.926 21.988C154.252 23.4813 154.84 25.404 154.69 27.756H143.546C143.584 28.8387 143.994 29.744 144.778 30.472C145.562 31.2 146.561 31.564 147.774 31.564C149.492 31.564 150.668 30.9107 151.302 29.604H154.522C154.093 30.9667 153.272 32.0867 152.058 32.964C150.845 33.8413 149.38 34.28 147.662 34.28ZM147.606 22.296C146.598 22.296 145.73 22.5853 145.002 23.164C144.293 23.724 143.836 24.5267 143.63 25.572H151.386C151.162 24.4893 150.705 23.6773 150.014 23.136C149.324 22.576 148.521 22.296 147.606 22.296Z" fill="#343434"/>
<rect width="22.5882" height="22.5882" rx="11.2941" fill="#FF8145"/>
<path d="M17.7598 25.4116H2C0.895431 25.4116 0 26.307 0 27.4116V43.1714C0 44.9532 2.15428 45.8456 3.41421 44.5856L19.174 28.8258C20.434 27.5659 19.5416 25.4116 17.7598 25.4116Z" fill="#43BA7F"/>
<path d="M43.1714 0H27.4116C26.3071 0 25.4116 0.895428 25.4116 2V17.7598C25.4116 19.5416 27.5659 20.434 28.8258 19.174L44.5856 3.41421C45.8456 2.15428 44.9532 0 43.1714 0Z" fill="#C282D1"/>
</svg>
