<svg width="136" height="80" viewBox="0 0 136 80" fill="none" xmlns="http://www.w3.org/2000/svg">
<rect y="40" width="40" height="40" fill="#FCC231"/>
<path d="M40 0C34.7471 -6.26399e-08 29.5457 1.03463 24.6927 3.04482C19.8396 5.05501 15.4301 8.00139 11.7157 11.7157C8.00138 15.4301 5.05501 19.8396 3.04482 24.6927C1.03463 29.5457 -7.93162e-07 34.7471 0 40L16 40C16 36.8483 16.6208 33.7274 17.8269 30.8156C19.033 27.9038 20.8008 25.258 23.0294 23.0294C25.258 20.8008 27.9038 19.033 30.8156 17.8269C33.7274 16.6208 36.8483 16 40 16V0Z" fill="#FCC231"/>
<rect x="56" y="40" width="40" height="40" fill="#43BA7F"/>
<path d="M96 0C90.7471 -6.26399e-08 85.5457 1.03463 80.6927 3.04482C75.8396 5.05501 71.4301 8.00139 67.7157 11.7157C64.0014 15.4301 61.055 19.8396 59.0448 24.6927C57.0346 29.5457 56 34.7471 56 40L72 40C72 36.8483 72.6208 33.7274 73.8269 30.8156C75.033 27.9038 76.8008 25.258 79.0294 23.0294C81.258 20.8008 83.9038 19.033 86.8156 17.8269C89.7274 16.6208 92.8483 16 96 16V0Z" fill="#43BA7F"/>
</svg>
