<svg width="60" height="40" viewBox="0 0 60 40" fill="none" xmlns="http://www.w3.org/2000/svg">
<path d="M20 40C14.6957 40 9.60859 37.8929 5.85786 34.1421C2.10713 30.3914 -1.10609e-06 25.3043 -8.74228e-07 20C-6.42368e-07 14.6957 2.10714 9.60859 5.85786 5.85786C9.60859 2.10714 14.6957 -3.05156e-07 20 -8.74228e-07L20 20L20 40Z" fill="#C282D1"/>
<path d="M40 40C34.6957 40 29.6086 37.8929 25.8579 34.1421C22.1071 30.3914 20 25.3043 20 20C20 14.6957 22.1071 9.60859 25.8579 5.85786C29.6086 2.10714 34.6957 -3.05156e-07 40 -8.74228e-07L40 20L40 40Z" fill="#FF8145"/>
</svg>
