<svg width="40" height="40" viewBox="0 0 40 40" fill="none" xmlns="http://www.w3.org/2000/svg">
<circle cx="10" cy="10" r="10" transform="rotate(90 10 10)" fill="#FF8145"/>
<circle cx="30" cy="10" r="10" transform="rotate(90 30 10)" fill="#C282D1"/>
<path d="M20 37.5858L20 21C20 20.4477 19.5523 20 19 20L2.41421 20C1.52331 20 1.07714 21.0771 1.7071 21.7071L18.2929 38.2929C18.9229 38.9229 20 38.4767 20 37.5858Z" fill="#FCC231"/>
<path d="M40 37.5858L40 21C40 20.4477 39.5523 20 39 20L22.4142 20C21.5233 20 21.0771 21.0771 21.7071 21.7071L38.2929 38.2929C38.9229 38.9229 40 38.4767 40 37.5858Z" fill="#43BA7F"/>
</svg>
